<svg xmlns="http://www.w3.org/2000/svg" width="1200" height="800" viewBox="0 0 1200 800">
  <defs>
    <linearGradient id="bg" x1="0" x2="1" y1="0" y2="1">
      <stop offset="0%" stop-color="#e8f4ff"/>
      <stop offset="100%" stop-color="#efe8ff"/>
    </linearGradient>
  </defs>
  <rect width="1200" height="800" fill="url(#bg)"/>
  <rect x="80" y="80" width="1040" height="640" rx="30" fill="#ffffff" opacity="0.94"/>
  <circle cx="220" cy="205" r="54" fill="#1f6f5c" opacity="0.12"/>
  <text x="180" y="220" font-family="Space Grotesk, Segoe UI, sans-serif" font-size="54" fill="#1f6f5c">OpsHub Intranet</text>
  <text x="180" y="285" font-family="Space Grotesk, Segoe UI, sans-serif" font-size="28" fill="#4f4f4f">Healthcare • Intranet • Operations</text>
  <rect x="180" y="340" width="840" height="220" rx="24" fill="#f7f2ea" stroke="#dfe7ef"/>
  <rect x="220" y="386" width="220" height="22" rx="11" fill="#ef7b2d" opacity="0.85"/>
  <rect x="220" y="430" width="500" height="18" rx="9" fill="#bcc9d7"/>
  <rect x="220" y="466" width="420" height="18" rx="9" fill="#d7dee7"/>
  <rect x="780" y="386" width="180" height="120" rx="18" fill="#1f6f5c" opacity="0.12"/>
  <path d="M845 405c-27.6 0-50 22.4-50 50v10h18v-10c0-17.7 14.3-32 32-32s32 14.3 32 32v10h18v-10c0-27.6-22.4-50-50-50zm0 35c-11 0-20 9-20 20s9 20 20 20 20-9 20-20-9-20-20-20z" fill="#1f6f5c"/>
  <g transform="translate(180 610)">
    <rect width="220" height="44" rx="12" fill="#ef7b2d"/>
    <text x="28" y="30" font-family="Space Grotesk, Segoe UI, sans-serif" font-size="20" fill="#ffffff">Live Demo</text>
  </g>
</svg>
